<?xml version="1.0" standalone="no"?>
<!DOCTYPE svg PUBLIC "-//W3C//DTD SVG 20010904//EN"
 "http://www.w3.org/TR/2001/REC-SVG-20010904/DTD/svg10.dtd">
<svg version="1.0" xmlns="http://www.w3.org/2000/svg"
 width="16.000000pt" height="16.000000pt" viewBox="0 0 16.000000 16.000000"
 preserveAspectRatio="xMidYMid meet">

<g transform="translate(0.000000,16.000000) scale(0.100000,-0.100000)"
fill="#000000" stroke="none">
<path d="M37 122 c-37 -41 -11 -102 43 -102 36 0 60 23 60 59 0 54 -68 82
-103 43z m78 -22 c18 -20 18 -21 1 -38 -17 -16 -18 -16 -12 5 10 32 -11 37
-23 6 -10 -26 -11 -26 -6 -3 2 14 5 31 5 38 0 18 14 15 35 -8z m-58 -20 c0
-28 -2 -29 -15 -16 -13 12 -13 18 -2 30 17 21 17 21 17 -14z"/>
</g>
</svg>
